<svg width="32" height="32" viewBox="0 0 32 32" fill="none" xmlns="http://www.w3.org/2000/svg">
<path d="M28 10.6667V27.9907C28.0012 28.1658 27.968 28.3394 27.9021 28.5016C27.8362 28.6639 27.739 28.8115 27.6161 28.9362C27.4931 29.0609 27.3468 29.1601 27.1855 29.2283C27.0242 29.2964 26.8511 29.3321 26.676 29.3333H5.324C4.97308 29.3333 4.63652 29.194 4.38826 28.946C4.14 28.698 4.00035 28.3616 4 28.0107V3.98932C4 3.27332 4.59867 2.66666 5.336 2.66666H19.996L28 10.6667ZM25.3333 12H18.6667V5.33332H6.66667V26.6667H25.3333V12ZM10.6667 9.33332H14.6667V12H10.6667V9.33332ZM10.6667 14.6667H21.3333V17.3333H10.6667V14.6667ZM10.6667 20H21.3333V22.6667H10.6667V20Z" fill="#E7E7E7"/>
</svg>
