<svg width="32" height="32" viewBox="0 0 32 32" fill="none" xmlns="http://www.w3.org/2000/svg">
<path d="M5.33366 21.3333V5.33334H2.66699V2.66667H6.66699C7.02061 2.66667 7.35975 2.80715 7.6098 3.0572C7.85985 3.30724 8.00033 3.64638 8.00033 4.00001V20H24.5843L27.251 9.33334H10.667V6.66667H28.9603C29.163 6.66668 29.363 6.71289 29.5451 6.80179C29.7273 6.89069 29.8868 7.01994 30.0114 7.17972C30.1361 7.3395 30.2227 7.5256 30.2647 7.72389C30.3067 7.92217 30.3029 8.12741 30.2537 8.32401L26.9203 21.6573C26.8481 21.9457 26.6816 22.2016 26.4473 22.3845C26.2129 22.5673 25.9242 22.6667 25.627 22.6667H6.66699C6.31337 22.6667 5.97423 22.5262 5.72418 22.2761C5.47413 22.0261 5.33366 21.687 5.33366 21.3333ZM8.00033 30.6667C7.29308 30.6667 6.6148 30.3857 6.11471 29.8856C5.61461 29.3855 5.33366 28.7073 5.33366 28C5.33366 27.2928 5.61461 26.6145 6.11471 26.1144C6.6148 25.6143 7.29308 25.3333 8.00033 25.3333C8.70757 25.3333 9.38585 25.6143 9.88594 26.1144C10.386 26.6145 10.667 27.2928 10.667 28C10.667 28.7073 10.386 29.3855 9.88594 29.8856C9.38585 30.3857 8.70757 30.6667 8.00033 30.6667ZM24.0003 30.6667C23.2931 30.6667 22.6148 30.3857 22.1147 29.8856C21.6146 29.3855 21.3337 28.7073 21.3337 28C21.3337 27.2928 21.6146 26.6145 22.1147 26.1144C22.6148 25.6143 23.2931 25.3333 24.0003 25.3333C24.7076 25.3333 25.3858 25.6143 25.8859 26.1144C26.386 26.6145 26.667 27.2928 26.667 28C26.667 28.7073 26.386 29.3855 25.8859 29.8856C25.3858 30.3857 24.7076 30.6667 24.0003 30.6667Z" fill="#E7E7E7"/>
</svg>
